<?xml version="1.0" encoding="UTF-8"?>
<svg width="17px" height="17px" viewBox="0 0 17 17" version="1.1" xmlns="http://www.w3.org/2000/svg" xmlns:xlink="http://www.w3.org/1999/xlink">
    <!-- Generator: Sketch 44.1 (41455) - http://www.bohemiancoding.com/sketch -->
    <title>Page 1</title>
    <desc>Created with Sketch.</desc>
    <defs></defs>
    <g id="Page-1" stroke="none" stroke-width="1" fill="none" fill-rule="evenodd">
        <g id="首页" transform="translate(-11.000000, -671.000000)" fill="#353732">
            <path d="M11.4547613,672.812917 L27.5440714,672.812917 L27.5440714,671 L11.4547613,671 L11.4547613,672.812917 Z M24.2378835,676.514237 L14.7804042,676.514237 L14.7804042,679.978399 L24.2367162,679.978399 L24.2367162,676.514237 L24.2378835,676.514237 Z M12.8530916,681.787717 L26.1457411,681.787717 L26.1457411,674.702487 L12.8530916,674.702487 L12.8530916,681.787717 Z M11,687.664401 L11,685.872106 L15.9537371,685.872106 C15.5001431,684.91881 14.9080292,683.894989 14.1747691,682.794515 L15.9537371,682.08927 C16.6602465,683.134978 17.2888385,684.395956 17.8470034,685.872106 L21.211459,685.872106 C21.8777938,684.733987 22.4638766,683.470577 22.9661082,682.08927 L24.8994518,682.794515 C24.3935238,683.960649 23.8476156,684.986902 23.270093,685.872106 L28,685.872106 L28,687.664401 L11,687.664401 Z" id="Page-1"></path>
        </g>
    </g>
</svg>