<?xml version="1.0" encoding="UTF-8"?>
<svg width="18px" height="18px" viewBox="0 0 18 18" version="1.1" xmlns="http://www.w3.org/2000/svg" xmlns:xlink="http://www.w3.org/1999/xlink">
    <!-- Generator: Sketch 44.1 (41455) - http://www.bohemiancoding.com/sketch -->
    <title>Page 1 Copy</title>
    <desc>Created with Sketch.</desc>
    <defs></defs>
    <g id="Page-1" stroke="none" stroke-width="1" fill="none" fill-rule="evenodd">
        <g id="首页" transform="translate(-1246.000000, -667.000000)" fill="#353732">
            <path d="M1258.34884,676 C1258.34884,674.149663 1256.84908,672.651163 1255,672.651163 C1253.15092,672.651163 1251.65116,674.149663 1251.65116,676 C1251.65116,677.850337 1253.15092,679.348837 1255,679.348837 C1256.84908,679.348837 1258.34884,677.850337 1258.34884,676 Z M1262.56303,670.474419 C1262.56303,670.751744 1262.33667,670.976744 1262.06071,670.976744 L1260.55499,670.976744 C1260.27902,670.976744 1260.05266,670.750384 1260.05266,670.474419 L1260.05266,668.967442 C1260.05266,668.690116 1260.27965,668.465116 1260.55499,668.465116 L1262.06071,668.465116 C1262.33803,668.465116 1262.56303,668.691372 1262.56303,668.967442 L1262.56303,670.474419 Z M1261.18687,667 L1248.81313,667 C1247.25906,667 1246,668.259686 1246,669.813128 L1246,672.860465 L1250.5563,672.860465 C1251.54128,671.468605 1253.164,670.55814 1255,670.55814 C1256.836,670.55814 1258.45872,671.468605 1259.4438,672.860465 L1264,672.860465 L1264,669.813128 C1264,668.260419 1262.74021,667 1261.18687,667 L1261.18687,667 Z M1260.44186,676 C1260.44186,679.005477 1258.00474,681.44186 1255,681.44186 C1251.99452,681.44186 1249.55814,679.005477 1249.55814,676 C1249.55814,675.642198 1249.59351,675.292349 1249.6608,674.953488 L1246,674.953488 L1246,682.186872 C1246,683.739581 1247.2578,685 1248.81313,685 L1261.18687,685 C1262.73958,685 1264,683.740942 1264,682.186872 L1264,674.953488 L1260.34045,674.953488 C1260.40659,675.292244 1260.44186,675.642198 1260.44186,676 Z" id="Page-1-Copy"></path>
        </g>
    </g>
</svg>