<?xml version="1.0" encoding="UTF-8"?>
<svg width="433px" height="112px" viewBox="0 0 433 112" version="1.1" xmlns="http://www.w3.org/2000/svg" xmlns:xlink="http://www.w3.org/1999/xlink">
    <!-- Generator: Sketch 44.1 (41455) - http://www.bohemiancoding.com/sketch -->
    <title>Group 2</title>
    <desc>Created with Sketch.</desc>
    <defs></defs>
    <g id="Page-1" stroke="none" stroke-width="1" fill="none" fill-rule="evenodd">
        <g id="home-" transform="translate(-428.000000, -284.000000)">
            <g id="Group-2" transform="translate(428.000000, 284.000000)">
                <g id="Page-1">
                    <path d="M75.2671119,110.226396 L49.5200623,104.603087 C43.1608388,103.537705 36.803683,100.613087 31.593069,96.3494869 C24.1948243,90.2960869 19.7988857,82.3046869 19.5321519,74.4272869 C19.3346861,68.5780505 21.4861321,63.2345596 25.5874229,59.3865414 L36.0892913,70.6331596 C35.5444513,71.1451232 34.8279918,72.0384687 34.8910568,73.9039232 C34.9789342,76.5186687 36.712704,80.6527232 41.3112776,84.4167959 C44.5162187,87.0377596 48.3735204,88.8182323 52.1718926,89.4265778 L52.5947381,89.5074141 L78.5392534,95.1763232 L75.2671119,110.226396 Z" id="Fill-1" fill="#8CC63F"></path>
                    <path d="M15.5077796,12.4420669 L44.2519661,12.4420669 C59.4806058,12.4420669 68.8266276,22.9041578 68.8266276,37.2795578 C68.8266276,52.3120123 58.9812553,64.2602487 44.2519661,64.2602487 L15.5077796,64.2602487 L15.5077796,12.4420669 Z M65.1636901,93.0960305 L69.6960971,105.372794 C70.8447067,108.483958 73.7798124,110.406412 76.9041131,110.406412 C77.7901243,110.406412 78.6906093,110.250958 79.5693835,109.92554 C83.5497136,108.447685 85.5822666,104.016194 84.1100614,100.029303 L78.5386331,81.6141578 C75.2158328,73.0589759 71.9271497,70.6950305 69.3683661,68.5031214 C78.0982122,61.4102487 84.7334741,50.0237214 84.7334741,37.9697759 C84.7334741,16.6973759 66.3753646,0.00570321678 44.2519661,0.00570321678 L8.37109945,0.00570321678 C7.1687296,0.00570321678 5.02968987,0.40573958 3.93070521,1.10735776 C1.68311102,2.48468503 0,4.94397594 0,7.82610322 L0,70.7955578 L0,102.560103 C0,106.920085 3.82318461,110.454085 7.75388982,110.454085 C11.684595,110.454085 15.5077796,106.920085 15.5077796,102.560103 L15.5077796,76.6966123 L44.2519661,76.6966123 C44.6282883,76.6966123 44.9984073,76.7826305 45.3736955,76.7722669 C49.1234767,76.6665578 52.794685,76.1297214 56.2922063,75.0467214 C58.7641463,77.3319032 60.2322161,80.2813941 61.295016,82.5271941 C62.3578158,84.7740305 65.1636901,93.0960305 65.1636901,93.0960305 L65.1636901,93.0960305 Z" id="Fill-3" fill="#353732"></path>
                    <path d="M44.2515526,64.2602487 C58.9808417,64.2602487 68.8262141,52.3120123 68.8262141,37.2795578 C68.8262141,22.9041578 59.4801922,12.4420669 44.2515526,12.4420669 L15.5073661,12.4420669 L15.5073661,64.2602487 L44.2515526,64.2602487 Z" id="Fill-5" fill="#FFFFFF"></path>
                    <path d="M14.3304729,58.9710655 C14.1919367,58.9710655 14.078213,58.9544837 13.9407107,58.9171746 C13.2769777,58.7420292 12.8448276,58.1709928 12.8448276,57.5243019 L12.8448276,48.9971019 C12.8448276,48.1970292 13.4806466,48.0436474 14.3304729,48.0436474 L19.8574455,48.0436474 C20.4126241,48.0436474 20.9264485,48.0799201 21.1983516,48.5348837 C21.4692208,48.9919201 21.4588823,49.4282292 21.1694037,49.8749019 L15.642431,58.3399201 C15.3581217,58.7783019 14.8556697,58.9710655 14.3304729,58.9710655" id="Fill-9" fill="#353732"></path>
                    <g id="Group-13" transform="translate(63.198666, 0.779117)" fill="#8CC63F">
                        <path d="M25.4755794,2.62826609 L1.89619678,20.1327006 C1.89619678,20.1327006 -2.57201004,10.1533269 7.74205152,3.33473901 C18.0561131,-3.48384885 25.4755794,2.62826609 25.4755794,2.62826609" id="Fill-11"></path>
                    </g>
                    <path d="M54.3931236,40.0891887 C54.3931236,46.4762978 49.2279991,51.6529341 42.8574032,51.6529341 C36.4857735,51.6529341 31.320649,46.4762978 31.320649,40.0891887 C31.320649,33.7020796 36.4857735,28.5254432 42.8574032,28.5254432 C49.2279991,28.5254432 54.3931236,33.7020796 54.3931236,40.0891887" id="Fill-14" fill="#B6EB63"></path>
                </g>
                <path d="M111.729411,63.0595077 L111.729411,105.387508 C111.729411,109.048308 114.360611,110.764308 117.907011,110.764308 C122.025411,110.764308 124.427811,108.819508 124.313411,104.586708 L124.313411,90.2867077 C124.199011,81.7067077 124.427811,72.8979077 124.313411,64.3179077 C124.313411,58.7123077 121.567811,57.3395077 117.792611,57.3395077 C115.047011,57.3395077 111.958211,58.8267077 111.729411,63.0595077 Z M117.563811,43.7259077 C122.368611,43.7259077 126.258211,41.4379077 126.258211,36.1755077 C126.258211,31.8283077 123.627011,28.3963077 118.479011,28.3963077 C114.818211,28.3963077 110.928611,30.5699077 110.242211,35.1459077 C109.670211,39.9507077 112.759011,43.7259077 117.563811,43.7259077 Z M195.106632,60.6571077 C190.759432,57.9115077 185.840232,56.9963077 181.378632,56.9963077 C164.905032,56.9963077 154.380232,71.5251077 154.265832,85.8251077 C154.265832,97.2651077 162.731432,111.221908 180.463432,111.221908 C188.242632,111.221908 193.047432,109.048308 196.593832,106.302708 C197.966632,105.387508 198.767432,103.785908 198.767432,102.184308 C198.767432,99.3243077 196.593832,95.8923077 193.733832,95.8923077 C192.017832,95.8923077 190.530632,96.9219077 189.157832,97.6083077 C186.984232,98.8667077 184.696232,99.8963077 180.577832,99.8963077 C172.569832,99.8963077 166.735432,93.3755077 166.735432,84.6811077 C166.735432,77.2451077 172.341032,68.3219077 180.921032,68.3219077 C183.666632,68.3219077 185.725832,68.7795077 187.556232,69.5803077 C188.700232,70.1523077 190.645032,71.1819077 192.475432,71.1819077 C195.678632,71.1819077 197.623432,67.8643077 197.623432,65.2331077 C197.623432,63.1739077 196.822632,61.8011077 195.106632,60.6571077 Z M226.546253,33.5443077 L226.660653,90.1723077 C226.660653,93.8331077 226.317453,100.353908 226.317453,105.387508 C226.317453,108.933908 229.063053,110.764308 232.495053,110.764308 C236.384653,110.764308 239.015853,108.933908 239.015853,105.387508 C239.015853,100.125108 238.787053,89.8291077 238.787053,82.8507077 C238.787053,74.0419077 245.079053,68.0931077 251.828653,68.0931077 C258.807053,68.0931077 262.925453,72.6691077 262.925453,81.0203077 C262.925453,86.1683077 262.582253,100.811508 262.353453,105.158708 C262.353453,108.819508 265.327853,110.535508 268.645453,110.535508 C272.535053,110.535508 275.280653,108.819508 275.395053,105.158708 C275.509453,95.8923077 275.395053,87.8843077 275.395053,80.1051077 C275.395053,67.0635077 268.302253,56.8819077 255.031853,56.8819077 C247.939053,56.8819077 241.761453,60.5427077 238.901453,65.9195077 C239.130253,41.6667077 239.244653,36.4043077 239.244653,32.8579077 C239.244653,28.8539077 237.185453,26.6803077 233.181453,26.6803077 C228.719853,26.6803077 226.546253,28.9683077 226.546253,33.5443077 Z M333.146673,56.8819077 C334.405073,56.8819077 335.549073,56.9963077 336.578673,57.5683077 C351.221873,59.7419077 357.742673,72.2115077 357.742673,84.1091077 C357.742673,99.7819077 345.845073,111.221908 329.943473,111.221908 C316.101073,111.221908 303.974673,100.925908 303.974673,85.7107077 C303.974673,68.6651077 315.071473,57.1107077 333.146673,56.8819077 Z M345.273073,83.6515077 C345.273073,75.3003077 340.125073,68.3219077 330.858673,67.8643077 C322.164273,68.3219077 316.444273,74.8427077 316.444273,85.7107077 C316.444273,94.4051077 323.193873,100.239508 329.714673,100.239508 C337.837073,100.239508 345.273073,93.8331077 345.273073,83.6515077 Z M387.809494,63.4027077 C387.809494,67.4067077 387.923894,71.6395077 387.923894,75.5291077 C387.923894,83.6515077 387.695094,94.8627077 387.580694,103.671508 C387.466294,109.048308 389.754294,110.649908 393.643894,110.649908 C397.304694,110.649908 399.935894,109.162708 400.050294,105.387508 C400.164694,98.9811077 399.935894,92.6891077 399.935894,86.9691077 C399.935894,75.5291077 406.227894,68.8939077 413.778294,68.8939077 L415.723094,68.8939077 C419.383894,68.8939077 420.871094,65.9195077 420.871094,62.9451077 C420.871094,58.7123077 418.811894,56.9963077 414.807894,56.9963077 C409.087894,56.9963077 402.567094,60.6571077 399.249494,67.8643077 L398.791894,61.5723077 C398.334294,58.8267077 396.618294,57.4539077 393.987094,57.4539077 C390.097494,57.4539077 387.695094,59.3987077 387.809494,63.4027077 Z" id="ichor" fill="#353732"></path>
                <path d="M366.254145,88.9724709 L348.554009,102.09132 C348.554009,102.09132 345.199898,94.6121924 352.942267,89.5019431 C360.684637,84.3916938 366.254145,88.9724709 366.254145,88.9724709" id="Fill-11-Copy-2" fill="#8CC63F" transform="translate(357.042675, 94.588074) rotate(70.000000) translate(-357.042675, -94.588074) "></path>
                <path d="M432.029698,52.2282515 L414.329561,65.3471005 C414.329561,65.3471005 410.97545,57.867973 418.71782,52.7577237 C426.46019,47.6474744 432.029698,52.2282515 432.029698,52.2282515" id="Fill-11-Copy-3" fill="#8CC63F" transform="translate(422.818227, 57.843855) rotate(-174.000000) translate(-422.818227, -57.843855) "></path>
                <path d="M178.384753,77.1605655 L160.684617,90.2794145 C160.684617,90.2794145 157.330506,82.800287 165.072875,77.6900377 C172.815245,72.5797884 178.384753,77.1605655 178.384753,77.1605655" id="Fill-11-Copy-4" fill="#8CC63F" transform="translate(169.173283, 82.776169) rotate(-114.000000) translate(-169.173283, -82.776169) "></path>
            </g>
        </g>
    </g>
</svg>