<?xml version="1.0" encoding="UTF-8"?>
<svg width="393px" height="102px" viewBox="0 0 393 102" version="1.1" xmlns="http://www.w3.org/2000/svg" xmlns:xlink="http://www.w3.org/1999/xlink">
    <!-- Generator: Sketch 43.2 (39069) - http://www.bohemiancoding.com/sketch -->
    <title>Group</title>
    <desc>Created with Sketch.</desc>
    <defs></defs>
    <g id="Page-1" stroke="none" stroke-width="1" fill="none" fill-rule="evenodd">
        <g id="home-" transform="translate(-448.000000, -288.000000)">
            <g id="Group" transform="translate(448.000000, 288.000000)">
                <g id="Page-1">
                    <path d="M68.3634171,101.469695 L44.9779537,96.3396582 C39.2020146,95.3677309 33.4279537,92.6996582 28.6952707,88.8100582 C21.9756122,83.2876582 17.9828805,75.9972582 17.7406122,68.8108582 C17.5612585,63.4747127 19.5153683,58.5999491 23.240478,55.0894764 L32.7790878,65.3495491 C32.284222,65.8166036 31.633478,66.6315855 31.6907585,68.3334036 C31.7705756,70.7187855 33.3453195,74.4902036 37.5221,77.9240945 C40.4330756,80.3151491 43.9365756,81.93944 47.3865512,82.4944218 L47.7706122,82.5681673 L71.3354293,87.7398036 L68.3634171,101.469695 Z" id="Fill-1" fill="#8CC63F"></path>
                    <path d="M14.0853659,12.2629382 L40.193061,12.2629382 C54.0248902,12.2629382 62.5136707,21.8073018 62.5136707,34.9217018 C62.5136707,48.63552 53.5713415,59.5356655 40.193061,59.5356655 L14.0853659,59.5356655 L14.0853659,12.2629382 Z M59.1867073,85.8419927 L63.3033902,97.0418473 C64.3466463,99.8801018 67.0125366,101.63392 69.8502683,101.63392 C70.6550122,101.63392 71.4729024,101.492102 72.2710732,101.195229 C75.8863171,99.8470109 77.732439,95.8042473 76.3952683,92.1670836 L71.3348659,75.3673018 C68.3168415,67.5625745 65.3298049,65.4059927 63.0057195,63.4063564 C70.9348415,56.9356655 76.9615,46.5479564 76.9615,35.5513745 C76.9615,16.1449745 60.2872439,0.917483636 40.193061,0.917483636 L7.60328049,0.917483636 C6.51119512,0.917483636 4.56835366,1.28242909 3.57017073,1.92250182 C1.52873171,3.17901091 0,5.42257455 0,8.05188364 L0,65.4977018 L0,94.4758836 C0,98.4534109 3.4725122,101.677411 7.04268293,101.677411 C10.6128537,101.677411 14.0853659,98.4534109 14.0853659,94.4758836 L14.0853659,70.88112 L40.193061,70.88112 C40.5348659,70.88112 40.8710366,70.9595927 41.2119024,70.9501382 C44.6177439,70.8537018 47.9522195,70.3639564 51.128939,69.3759564 C53.3741463,71.4606836 54.707561,74.1514473 55.672878,76.2002473 C56.6381951,78.2499927 59.1867073,85.8419927 59.1867073,85.8419927 L59.1867073,85.8419927 Z" id="Fill-3" fill="#353732"></path>
                    <path d="M40.1926854,59.5356655 C53.5709659,59.5356655 62.5132951,48.63552 62.5132951,34.9217018 C62.5132951,21.8073018 54.0245146,12.2629382 40.1926854,12.2629382 L14.0849902,12.2629382 L14.0849902,59.5356655 L40.1926854,59.5356655 Z" id="Fill-5" fill="#FFFFFF"></path>
                    <path d="M13.0160447,54.7104458 C12.8902154,54.7104458 12.7869228,54.6953185 12.6620325,54.6612821 C12.0591789,54.5015003 11.6666667,53.9805549 11.6666667,53.3905912 L11.6666667,45.6113912 C11.6666667,44.8815003 12.2441667,44.741573 13.0160447,44.741573 L18.0360691,44.741573 C18.5403252,44.741573 19.0070203,44.7746639 19.2539837,45.1897185 C19.5000081,45.6066639 19.4906179,46.0047003 19.2276911,46.4121912 L14.2076667,54.1346639 C13.949435,54.5345912 13.4930691,54.7104458 13.0160447,54.7104458" id="Fill-9" fill="#353732"></path>
                    <g id="Group-13" transform="translate(55.585366, 1.623055)" fill="#8CC63F">
                        <path d="M19.9377415,2.33461091 L1.18166829,16.3197745 C1.18166829,16.3197745 -2.37253902,8.34675636 5.83171707,2.89904727 C14.0359732,-2.54866182 19.9377415,2.33461091 19.9377415,2.33461091" id="Fill-11"></path>
                    </g>
                    <path d="M49.4040451,37.4848739 C49.4040451,43.3117102 44.7126793,48.0342557 38.926411,48.0342557 C33.1392037,48.0342557 28.4478378,43.3117102 28.4478378,37.4848739 C28.4478378,31.6580375 33.1392037,26.9354921 38.926411,26.9354921 C44.7126793,26.9354921 49.4040451,31.6580375 49.4040451,37.4848739" id="Fill-14" fill="#B6EB63"></path>
                    <path d="M46.2140598,37.4848739 C46.2140598,41.537143 42.9513599,44.8230459 38.9257956,44.8230459 C34.9010864,44.8230459 31.6383866,41.537143 31.6383866,37.4848739 C31.6383866,33.4326047 34.9010864,30.1467018 38.9257956,30.1467018 C42.9513599,30.1467018 46.2140598,33.4326047 46.2140598,37.4848739" id="Fill-16" fill="#353732"></path>
                </g>
                <text id="ichor" font-family="Linotte-SemiBold, Linotte" font-size="104" font-weight="500" letter-spacing="15.7894735" fill="#353732">
                    <tspan x="94" y="101">ichor</tspan>
                </text>
                <path d="M332.660365,82.0801489 L316.583731,94.0482216 C316.583731,94.0482216 313.537267,87.225158 320.569487,82.5631762 C327.601706,77.9011944 332.660365,82.0801489 332.660365,82.0801489" id="Fill-11-Copy-2" fill="#8CC63F" transform="translate(324.293794, 87.203155) rotate(70.000000) translate(-324.293794, -87.203155) "></path>
                <path d="M392.402813,48.5591066 L376.326179,60.5271794 C376.326179,60.5271794 373.279715,53.7041157 380.311935,49.0421339 C387.344154,44.3801521 392.402813,48.5591066 392.402813,48.5591066" id="Fill-11-Copy-3" fill="#8CC63F" transform="translate(384.036242, 53.682113) rotate(-174.000000) translate(-384.036242, -53.682113) "></path>
                <path d="M162.022841,71.3043755 L145.946207,83.2724483 C145.946207,83.2724483 142.899743,76.4493846 149.931963,71.7874028 C156.964182,67.125421 162.022841,71.3043755 162.022841,71.3043755" id="Fill-11-Copy-4" fill="#8CC63F" transform="translate(153.656270, 76.427382) rotate(-114.000000) translate(-153.656270, -76.427382) "></path>
            </g>
        </g>
    </g>
</svg>