<?xml version="1.0" encoding="UTF-8"?>
<svg width="21px" height="17px" viewBox="0 0 21 17" version="1.1" xmlns="http://www.w3.org/2000/svg" xmlns:xlink="http://www.w3.org/1999/xlink">
    <!-- Generator: Sketch 44.1 (41455) - http://www.bohemiancoding.com/sketch -->
    <title>Shape</title>
    <desc>Created with Sketch.</desc>
    <defs></defs>
    <g id="Page-1" stroke="none" stroke-width="1" fill="none" fill-rule="evenodd">
        <g id="home--copy" transform="translate(-40.000000, -33.000000)" fill-rule="nonzero" fill="#353732">
            <g id="twitter" transform="translate(40.000000, 33.000000)">
                <path d="M14.2799655,0.0205629011 C15.9467655,-0.00875331868 16.8337815,0.596365978 17.6811015,1.36597653 C18.3998055,1.30413987 19.3341495,0.903708044 19.8848535,0.62570611 C20.0634135,0.528144791 20.2416615,0.430607385 20.4201975,0.33366778 C20.1056775,1.18046655 19.6791015,1.84295095 19.0244295,2.34606127 C18.8788695,2.45763508 18.7345095,2.60811385 18.5518215,2.67951534 L18.5518215,2.6897258 C19.4852055,2.68016097 20.2557495,2.26059947 20.9872455,2.03298031 L20.9872455,2.04381248 C20.6026455,2.65211209 20.0829495,3.26935481 19.5281175,3.711848 C19.3041015,3.88910831 19.0801095,4.06639253 18.8561415,4.24362892 C18.8683095,5.22813741 18.8420535,6.16800202 18.6567495,6.99564721 C17.5822455,11.8072136 14.7352935,15.073844 10.2285735,16.4734424 C8.6103975,16.9758832 5.9951175,17.1818141 4.1411175,16.7233954 C3.2214615,16.4957284 2.3907975,16.2394148 1.6113015,15.900174 C1.1786775,15.7114359 0.7773975,15.5067723 0.3940455,15.274036 C0.2679735,15.1974934 0.1419015,15.1209986 0.0164775,15.0451016 C0.4343655,15.057249 0.9236535,15.172027 1.3911255,15.0967517 C1.8141495,15.0285305 2.2288695,15.0470385 2.6189175,14.9616006 C3.5926695,14.7486156 4.4566215,14.4674334 5.2009095,14.0331899 C5.5618695,13.8234331 6.1096935,13.5760147 6.3663015,13.2724985 C5.8827975,13.280796 5.4447495,13.1691983 5.0857095,13.0429186 C3.6937335,12.5532229 2.8835415,11.6529089 2.3568375,10.3011108 C2.7785895,10.3464003 3.9932775,10.4560372 4.2774135,10.2176098 C3.7462215,10.1882696 3.2361735,9.8821949 2.8707495,9.65457574 C1.7514135,8.95634277 0.8381895,7.78565477 0.8452215,5.9849789 C0.9924375,6.05384571 1.1392935,6.12333424 1.2861735,6.19284668 C1.5674295,6.31145064 1.8531735,6.37457855 2.1885495,6.44279974 C2.3306295,6.47213987 2.6138295,6.55566479 2.7766935,6.49509547 L2.7555735,6.49509547 C2.5392615,6.2445207 2.1860055,6.07680132 1.9683975,5.80771859 C1.2500295,4.91759112 0.5770695,3.54857626 1.0029975,1.91815446 C1.1108295,1.50497749 1.2819975,1.13960079 1.4647575,0.802918593 C1.4714775,0.806122813 1.4788215,0.809948747 1.4855415,0.813129055 C1.5690615,0.987830769 1.7556135,1.11537785 1.8736935,1.26138505 C2.2410375,1.71473433 2.6935095,2.12219631 3.1542855,2.48116457 C4.7254215,3.70543956 6.1404135,4.45783341 8.4129735,5.0144829 C8.9889735,5.15601855 9.6558135,5.26441204 10.3441095,5.26505767 C10.1508375,4.70393662 10.2126135,3.79594681 10.3649175,3.25268809 C10.7482455,1.88690136 11.5795815,0.903014593 12.8003415,0.375059604 C13.0918695,0.249449407 13.4156775,0.156981363 13.7551815,0.083642989 C13.9302135,0.0626481758 14.1049095,0.0416055385 14.2799655,0.0205629011" id="Shape"></path>
            </g>
        </g>
    </g>
</svg>