<?xml version="1.0" encoding="UTF-8"?>
<svg width="21px" height="17px" viewBox="0 0 21 17" version="1.1" xmlns="http://www.w3.org/2000/svg" xmlns:xlink="http://www.w3.org/1999/xlink">
    <!-- Generator: Sketch 44.1 (41455) - http://www.bohemiancoding.com/sketch -->
    <title>weixin - fontawesome</title>
    <desc>Created with Sketch.</desc>
    <defs></defs>
    <g id="Page-1" stroke="none" stroke-width="1" fill="none" fill-rule="evenodd">
        <g id="首页" transform="translate(-13.000000, -12.000000)" fill="#353732">
            <path d="M18.8258998,16.2019961 C18.8258998,15.64954 18.4642922,15.2879325 17.9118362,15.2879325 C17.3694249,15.2879325 16.8169688,15.64954 16.8169688,16.2019961 C16.8169688,16.7444074 17.3694249,17.106015 17.9118362,17.106015 C18.4642922,17.106015 18.8258998,16.7444074 18.8258998,16.2019961 Z M26.2890783,21.2946361 C26.2890783,20.9330285 25.9274708,20.5714209 25.3750148,20.5714209 C25.0134072,20.5714209 24.6517996,20.9330285 24.6517996,21.2946361 C24.6517996,21.6662883 25.0134072,22.0278959 25.3750148,22.0278959 C25.9274708,22.0278959 26.2890783,21.6662883 26.2890783,21.2946361 Z M23.9185398,16.2019961 C23.9185398,15.64954 23.5569322,15.2879325 23.0145209,15.2879325 C22.4620649,15.2879325 21.9196535,15.64954 21.9196535,16.2019961 C21.9196535,16.7444074 22.4620649,17.106015 23.0145209,17.106015 C23.5569322,17.106015 23.9185398,16.7444074 23.9185398,16.2019961 Z M30.2968956,21.2946361 C30.2968956,20.9330285 29.9252434,20.5714209 29.382832,20.5714209 C29.0212245,20.5714209 28.6596169,20.9330285 28.6596169,21.2946361 C28.6596169,21.6662883 29.0212245,22.0278959 29.382832,22.0278959 C29.9252434,22.0278959 30.2968956,21.6662883 30.2968956,21.2946361 Z M27.6250174,17.3069081 C27.3939904,17.2767741 27.1629633,17.2667295 26.9218916,17.2667295 C23.4665303,17.2667295 20.7343842,19.8482058 20.7343842,23.0223167 C20.7343842,23.5546834 20.8147415,24.0669608 20.9654113,24.5491042 C20.7343842,24.5691935 20.5134018,24.5792382 20.2823748,24.5792382 C19.3683112,24.5792382 18.645096,24.3984344 17.7310324,24.2176306 L15.1897348,25.4933018 L15.9129499,23.303567 C14.0948674,22.0278959 13,20.3805725 13,18.3816862 C13,14.9162802 16.2745575,12.1941788 20.2823748,12.1941788 C23.8582719,12.1941788 27.0022488,14.3738689 27.6250174,17.3069081 Z M33.5714531,22.9419594 C33.5714531,24.5792382 32.4866304,26.0357131 31.0201108,27.1305805 L31.5725668,28.948663 L29.5736805,27.8537957 C28.8404207,28.0345994 28.1071609,28.2254479 27.3839457,28.2254479 C23.9185398,28.2254479 21.1964383,25.8549093 21.1964383,22.9419594 C21.1964383,20.0290095 23.9185398,17.658471 27.3839457,17.658471 C30.6585032,17.658471 33.5714531,20.0290095 33.5714531,22.9419594 Z" id="weixin---fontawesome"></path>
        </g>
    </g>
</svg>